<?xml version="1.0" encoding="UTF-8" standalone="no"?>
<svg
   id="Capa_1"
   version="1.1"
   viewBox="0 0 77.500025 61.599995"
   sodipodi:docname="arrow_black.svg"
   width="77.500023"
   height="61.599998"
   inkscape:version="1.1.2 (0a00cf5339, 2022-02-04)"
   xmlns:inkscape="http://www.inkscape.org/namespaces/inkscape"
   xmlns:sodipodi="http://sodipodi.sourceforge.net/DTD/sodipodi-0.dtd"
   xmlns="http://www.w3.org/2000/svg"
   xmlns:svg="http://www.w3.org/2000/svg">
  <sodipodi:namedview
     id="namedview126"
     pagecolor="#ffffff"
     bordercolor="#666666"
     borderopacity="1.0"
     inkscape:pageshadow="2"
     inkscape:pageopacity="0.0"
     inkscape:pagecheckerboard="0"
     showgrid="false"
     inkscape:zoom="1.0024943"
     inkscape:cx="-201.99616"
     inkscape:cy="99.252432"
     inkscape:window-width="1920"
     inkscape:window-height="1016"
     inkscape:window-x="0"
     inkscape:window-y="107"
     inkscape:window-maximized="1"
     inkscape:current-layer="Capa_1" />
  <!-- Generator: Adobe Illustrator 29.5.0, SVG Export Plug-In . SVG Version: 2.1.0 Build 137)  -->
  <defs
     id="defs10">
    <style
       id="style2">
      .st0 {
        fill: #f193b3;
      }

      .st1 {
        fill: none;
      }

      .st2 {
        fill: #010101;
      }

      .st3 {
        fill: #f194b3;
      }

      .st4 {
        fill: #e62e20;
      }

      .st5 {
        fill: #ff1800;
      }

      .st6 {
        fill: #2c2f35;
      }

      .st7 {
        clip-path: url(#clippath-1);
      }

      .st8 {
        fill: #fff;
      }

      .st9 {
        fill: #ff1900;
      }

      .st10 {
        clip-path: url(#clippath);
      }
    </style>
    <clipPath
       id="clippath">
      <rect
         class="st1"
         x="454.10001"
         y="449.60001"
         width="107.3"
         height="68.5"
         id="rect4" />
    </clipPath>
    <clipPath
       id="clippath-1">
      <rect
         class="st1"
         x="488.39999"
         y="549.09998"
         width="38.5"
         height="38.599998"
         id="rect7" />
    </clipPath>
  </defs>
  <g
     id="Grupo_50"
     transform="translate(-613.09998,-321.9)">
    <g
       id="Grupo_49">
      <path
         id="Trazado_46"
         class="st2"
         d="M 148.5,154.2 C 148.5,84 93.2,27.1 25,27.1 v 225.8 h 75.1 v -47.7 l 47.6,34.7 47.6,-34.6 V 253 h 75.1 V 27.1 C 203,28.1 148.6,84.6 148.6,154.2" />
    </g>
  </g>
  <g
     id="Grupo_65"
     transform="translate(-613.09998,-321.9)">
    <g
       id="Grupo_64">
      <path
         id="Trazado_57"
         class="st8"
         d="m 319.7,386.3 c 0,0 -46.9,-3.5 -70.6,-14 -14.3,-6.3 -45.6,-30.4 -45.6,-30.4 v 0 c -9.7,-7.4 -21.6,-11.5 -33.9,-11.5 -12.2,0 -24.2,4 -33.9,11.5 v 0 c 0,0 -31.3,24.1 -45.6,30.4 -23.7,10.5 -70.5,14 -70.5,14 h -0.1 c 0,0 46.9,3.5 70.6,14 14.3,6.3 45.6,30.4 45.6,30.4 v 0 c 9.7,7.4 21.6,11.5 33.9,11.4 12.2,0 24.2,-4 33.9,-11.5 v 0 c 0,0 31.3,-24.1 45.6,-30.4 23.7,-10.5 70.6,-14 70.6,-14" />
    </g>
  </g>
  <g
     id="Grupo_68"
     transform="translate(-613.09998,-321.9)">
    <g
       id="Grupo_67">
      <path
         id="Trazado_59"
         class="st6"
         d="m 169.6,428.5 c -23.2,0 -42.1,-18.9 -42.1,-42.1 0,-23.2 18.9,-42.1 42.1,-42.1 23.2,0 42.1,18.9 42.1,42.1 0,23.2 -18.8,42.1 -42.1,42.1 v 0" />
    </g>
  </g>
  <g
     id="Grupo_71-3"
     transform="translate(-613.09998,-321.9)">
    <g
       id="Grupo_70-3">
      <path
         id="Trazado_61-3"
         class="st0"
         d="m 198.4,386.3 v 0 c -16,0 -29,-13 -29,-29.1 v 0 c 0,16 -13,29.1 -29,29.1 v 0 c 16,0 29,13 29,29.1 v 0 c 0,-16 12.9,-29.1 29,-29.1 z" />
    </g>
  </g>
  <g
     id="Grupo_79"
     transform="translate(-613.09998,-321.9)">
    <g
       id="Grupo_78">
      <path
         id="Trazado_66"
         class="st2"
         d="m 435,171.5 c 10.7,-6.1 29.2,-27.6 29.2,-55.2 0,-53.3 -39.6,-89.2 -91.7,-89.2 H 283.6 V 251.7 H 462 v -27.3 c 0,-26 -10.1,-42.7 -27,-52.9 m -75.3,-26.8 v 0 -77.1 0 c 0,21.3 16.9,38.5 37.7,38.5 -20.8,0 -37.7,17.2 -37.7,38.5" />
    </g>
  </g>
  <path
     class="st2"
     d="m -227.89998,46.1 c 0,-28.1 -22.7,-51 -50.8,-51.1 h -0.2 v 273.6 h 101.2 V -5 c -27.8,0.5 -50.2,23.2 -50.2,51.1 z"
     id="path27" />
  <g
     id="Grupo_113"
     transform="translate(-616.49998,-342.9)">
    <g
       id="g521">
      <g
         id="Grupo_112">
        <path
           id="Trazado_63"
           class="st4"
           d="m 203.8,531.5 v 0 c 0,0 -16.7,-21.7 -21.1,-31.7 -7.3,-16.5 -9.7,-50.3 -9.7,-50.3 v 0 c 0,0 -2.4,33.8 -9.7,50.3 -4.4,10 -21.1,31.7 -21.1,31.7 v 0 c -5.2,6.8 -8,15 -7.9,23.5 0,21.4 17.4,38.8 38.8,38.8 21.4,0 38.8,-17.4 38.8,-38.8 0,-8.5 -2.8,-16.8 -7.9,-23.5" />
      </g>
      <path
         id="Trazado_64"
         class="st8"
         d="m 190.6,560.6 v 0 c -9.8,0 -17.7,-7.9 -17.6,-17.7 v 0 c 0,9.8 -7.9,17.7 -17.6,17.7 v 0 c 9.8,0 17.7,7.9 17.6,17.7 v 0 c 0,-9.8 7.9,-17.7 17.6,-17.7 z" />
    </g>
  </g>
  <g
     id="g83"
     transform="translate(-613.09998,-321.9)">
    <g
       id="Grupo_89">
      <path
         id="Trazado_74"
         class="st6"
         d="m 345.7,638.9 v 0 c -13.7,0 -24.9,-11.2 -24.8,-24.9 0,13.7 -11.1,24.9 -24.8,24.9 v 0 c 13.7,0 24.9,11.2 24.8,24.9 0,-13.7 11.1,-24.9 24.8,-24.9 z" />
    </g>
    <g
       id="Grupo_90">
      <path
         id="Trazado_75"
         class="st6"
         d="m 395,638.9 v 0 c -13.7,0 -24.9,-11.2 -24.8,-24.9 0,13.7 -11.1,24.9 -24.8,24.9 v 0 c 13.7,0 24.9,11.2 24.8,24.9 0,-13.7 11.1,-24.9 24.8,-24.9 z" />
    </g>
    <g
       id="Grupo_91">
      <path
         id="Trazado_76"
         class="st6"
         d="m 445.6,639 v 0 c -13.7,0 -24.9,-11.2 -24.8,-24.9 0,13.7 -11.1,24.9 -24.8,24.9 v 0 c 13.7,0 24.9,11.2 24.8,24.9 0,-13.7 11.1,-24.9 24.8,-24.9 z" />
    </g>
    <g
       id="Grupo_92">
      <path
         id="Trazado_77"
         class="st6"
         d="m 494.9,639 v 0 c -13.7,0 -24.9,-11.2 -24.8,-24.9 0,13.7 -11.1,24.9 -24.8,24.9 v 0 c 13.7,0 24.9,11.2 24.8,24.9 0,-13.7 11.1,-24.9 24.8,-24.9 z" />
    </g>
    <g
       id="Grupo_93">
      <path
         id="Trazado_78"
         class="st6"
         d="m 545.5,639 v 0 c -13.7,0 -24.8,-11.2 -24.8,-24.9 0,13.7 -11.1,24.9 -24.8,24.9 v 0 c 13.7,0 24.9,11.2 24.8,24.9 0,-13.7 11.1,-24.9 24.8,-24.9 z" />
    </g>
    <g
       id="Grupo_94">
      <path
         id="Trazado_79"
         class="st6"
         d="m 594.9,639 v 0 c -13.7,0 -24.8,-11.2 -24.8,-24.9 0,13.7 -11.1,24.9 -24.8,24.9 v 0 c 13.7,0 24.8,11.2 24.8,24.9 0,-13.7 11.1,-24.9 24.8,-24.9 z" />
    </g>
    <g
       id="Grupo_95-2">
      <g
         id="Grupo_89-2">
        <path
           id="Trazado_74-2"
           class="st6"
           d="m 345.7,680.3 v 0 c -13.7,0 -24.9,-11.2 -24.8,-24.9 0,13.7 -11.1,24.9 -24.8,24.9 v 0 c 13.7,0 24.9,11.2 24.8,24.9 0,-13.7 11.1,-24.9 24.8,-24.9 z" />
      </g>
      <g
         id="Grupo_90-2">
        <path
           id="Trazado_75-2"
           class="st6"
           d="m 395,680.3 v 0 c -13.7,0 -24.9,-11.2 -24.8,-24.9 0,13.7 -11.1,24.9 -24.8,24.9 v 0 c 13.7,0 24.9,11.2 24.8,24.9 0,-13.7 11.1,-24.9 24.8,-24.9 z" />
      </g>
      <g
         id="Grupo_91-2">
        <path
           id="Trazado_76-2"
           class="st6"
           d="m 445.6,680.4 v 0 c -13.7,0 -24.9,-11.2 -24.8,-24.9 0,13.7 -11.1,24.9 -24.8,24.9 v 0 c 13.7,0 24.9,11.2 24.8,24.9 0,-13.7 11.1,-24.9 24.8,-24.9 z" />
      </g>
      <g
         id="Grupo_92-2">
        <path
           id="Trazado_77-2"
           class="st6"
           d="m 494.9,680.4 v 0 c -13.7,0 -24.9,-11.2 -24.8,-24.9 0,13.7 -11.1,24.9 -24.8,24.9 v 0 c 13.7,0 24.9,11.2 24.8,24.9 0,-13.7 11.1,-24.9 24.8,-24.9 z" />
      </g>
      <g
         id="Grupo_93-2">
        <path
           id="Trazado_78-2"
           class="st6"
           d="m 545.5,680.4 v 0 c -13.7,0 -24.8,-11.2 -24.8,-24.9 0,13.7 -11.1,24.9 -24.8,24.9 v 0 c 13.7,0 24.9,11.2 24.8,24.9 0,-13.7 11.1,-24.9 24.8,-24.9 z" />
      </g>
      <g
         id="Grupo_94-2">
        <path
           id="Trazado_79-2"
           class="st6"
           d="m 594.9,680.4 v 0 c -13.7,0 -24.8,-11.2 -24.8,-24.9 0,13.7 -11.1,24.9 -24.8,24.9 v 0 c 13.7,0 24.8,11.2 24.8,24.9 0,-13.7 11.1,-24.9 24.8,-24.9 z" />
      </g>
    </g>
    <g
       id="Grupo_89-21"
       data-name="Grupo_89-2">
      <path
         id="Trazado_74-21"
         data-name="Trazado_74-2"
         class="st6"
         d="m 49.8,639 v 0 C 36.1,639 24.9,627.8 25,614.1 25,627.8 13.9,639 0.2,639 v 0 C 13.9,639 25,650.2 25,663.9 25,650.2 36.1,639 49.8,639 Z" />
    </g>
    <g
       id="Grupo_90-21"
       data-name="Grupo_90-2">
      <path
         id="Trazado_75-21"
         data-name="Trazado_75-2"
         class="st6"
         d="m 99.1,639 v 0 C 85.4,639 74.3,627.8 74.3,614.1 74.3,627.8 63.2,639 49.5,639 v 0 c 13.7,0 24.8,11.2 24.8,24.9 0,-13.7 11.1,-24.9 24.8,-24.9 z" />
    </g>
    <g
       id="Grupo_91-21"
       data-name="Grupo_91-2">
      <path
         id="Trazado_76-21"
         data-name="Trazado_76-2"
         class="st6"
         d="m 149.7,639.1 v 0 c -13.7,0 -24.8,-11.2 -24.8,-24.9 0,13.7 -11.1,24.9 -24.8,24.9 v 0 c 13.7,0 24.8,11.2 24.8,24.9 0,-13.7 11.1,-24.9 24.8,-24.9 z" />
    </g>
    <g
       id="Grupo_92-21"
       data-name="Grupo_92-2">
      <path
         id="Trazado_77-21"
         data-name="Trazado_77-2"
         class="st6"
         d="m 199,639.1 v 0 c -13.7,0 -24.9,-11.2 -24.8,-24.9 0,13.7 -11.1,24.9 -24.8,24.9 v 0 c 13.7,0 24.9,11.2 24.8,24.9 0,-13.7 11.1,-24.9 24.8,-24.9 z" />
    </g>
    <g
       id="Grupo_93-21"
       data-name="Grupo_93-2">
      <path
         id="Trazado_78-21"
         data-name="Trazado_78-2"
         class="st6"
         d="m 249.7,639.1 v 0 c -13.7,0 -24.9,-11.2 -24.8,-24.9 0,13.7 -11.1,24.9 -24.8,24.9 v 0 c 13.7,0 24.9,11.2 24.8,24.9 0,-13.7 11.1,-24.9 24.8,-24.9 z" />
    </g>
    <g
       id="Grupo_94-21"
       data-name="Grupo_94-2">
      <path
         id="Trazado_79-21"
         data-name="Trazado_79-2"
         class="st6"
         d="m 299,639.1 v 0 c -13.7,0 -24.9,-11.2 -24.8,-24.9 0,13.7 -11.1,24.9 -24.8,24.9 v 0 c 13.7,0 24.8,11.2 24.8,24.9 0,-13.7 11.1,-24.9 24.8,-24.9 z" />
    </g>
    <g
       id="Grupo_95-2-2">
      <g
         id="Grupo_89-2-2">
        <path
           id="Trazado_74-2-2"
           class="st6"
           d="m 49.8,680.4 v 0 c -13.7,0 -24.9,-11.2 -24.8,-24.9 0,13.7 -11.1,24.9 -24.8,24.9 v 0 c 13.7,0 24.8,11.2 24.8,24.9 0,-13.7 11.1,-24.9 24.8,-24.9 z" />
      </g>
      <g
         id="Grupo_90-2-2">
        <path
           id="Trazado_75-2-2"
           class="st6"
           d="m 99.1,680.4 v 0 c -13.7,0 -24.8,-11.2 -24.8,-24.9 0,13.7 -11.1,24.9 -24.8,24.9 v 0 c 13.7,0 24.8,11.2 24.8,24.9 0,-13.7 11.1,-24.9 24.8,-24.9 z" />
      </g>
      <g
         id="Grupo_91-2-2">
        <path
           id="Trazado_76-2-2"
           class="st6"
           d="m 149.7,680.5 v 0 c -13.7,0 -24.8,-11.2 -24.8,-24.9 0,13.7 -11.1,24.9 -24.8,24.9 v 0 c 13.7,0 24.8,11.2 24.8,24.9 0,-13.7 11.1,-24.9 24.8,-24.9 z" />
      </g>
      <g
         id="Grupo_92-2-2">
        <path
           id="Trazado_77-2-2"
           class="st6"
           d="m 199,680.5 v 0 c -13.7,0 -24.9,-11.2 -24.8,-24.9 0,13.7 -11.1,24.9 -24.8,24.9 v 0 c 13.7,0 24.9,11.2 24.8,24.9 0,-13.7 11.1,-24.9 24.8,-24.9 z" />
      </g>
      <g
         id="Grupo_93-2-2">
        <path
           id="Trazado_78-2-2"
           class="st6"
           d="m 249.7,680.5 v 0 c -13.7,0 -24.9,-11.2 -24.8,-24.9 0,13.7 -11.1,24.9 -24.8,24.9 v 0 c 13.7,0 24.9,11.2 24.8,24.9 0,-13.7 11.1,-24.9 24.8,-24.9 z" />
      </g>
      <g
         id="Grupo_94-2-2">
        <path
           id="Trazado_79-2-2"
           class="st6"
           d="m 299,680.5 v 0 c -13.7,0 -24.9,-11.2 -24.8,-24.9 0,13.7 -11.1,24.9 -24.8,24.9 v 0 c 13.7,0 24.8,11.2 24.8,24.9 0,-13.7 11.1,-24.9 24.8,-24.9 z" />
      </g>
    </g>
  </g>
  <g
     id="Grupo_61"
     transform="translate(-613.09998,-321.9)">
    <g
       id="Grupo_59">
      <path
         id="Trazado_53"
         class="st8"
         d="m 501.7,407.4 c -26.3,0 -47.6,-21.3 -47.6,-47.6 0,-26.3 21.3,-47.6 47.6,-47.6 26.3,0 47.6,21.3 47.6,47.6 0,26.3 -21.3,47.6 -47.6,47.6" />
    </g>
    <g
       id="Grupo_60">
      <path
         id="Trazado_54"
         class="st3"
         d="m 534.6,359.7 v 0 c -18.2,0 -32.9,-14.8 -32.9,-32.9 v 0 c 0,18.2 -14.7,32.9 -32.9,32.9 v 0 c 18.2,0 32.9,14.8 32.9,32.9 0,-18.2 14.7,-32.9 32.8,-32.9 v 0 z" />
    </g>
  </g>
  <g
     id="Grupo_58"
     transform="translate(-613.09998,-321.9)">
    <g
       class="st10"
       clip-path="url(#clippath)"
       id="g98">
      <g
         id="Grupo_57">
        <g
           id="Grupo_56">
          <g
             id="Trazado_50">
            <path
               class="st8"
               d="m 505.9,501.4 v 0 c 0,-25.9 -20.8,-47 -46.3,-47 v -5 h 97.6 v 5 c -12.4,0 -24,4.9 -32.7,13.7 -8.8,8.9 -13.6,20.7 -13.6,33.2 h -5 z m -24.3,-46.9 c 12.6,6.1 22.4,17.2 26.8,30.9 2.5,-7.7 6.7,-14.8 12.5,-20.6 4.2,-4.3 9,-7.7 14.3,-10.2 h -53.6 z"
               id="path90" />
          </g>
        </g>
        <g
           id="Trazado_51">
          <path
             class="st8"
             d="m 561.7,518.4 h -108 v -69.2 h 108 z m -103,-5 h 98 v -59.2 h -98 z"
             id="path94" />
        </g>
      </g>
    </g>
  </g>
  <g
     id="Grupo_98"
     transform="translate(-613.09998,-321.9)">
    <g
       class="st7"
       clip-path="url(#clippath-1)"
       id="g104">
      <g
         id="Grupo_71">
        <g
           id="Grupo_70">
          <path
             id="Trazado_61"
             class="st4"
             d="m 527,568.4 v 0 c -10.7,0 -19.3,-8.7 -19.3,-19.3 v 0 c 0,10.7 -8.6,19.3 -19.3,19.3 v 0 c 10.7,0 19.3,8.7 19.3,19.3 v 0 c 0,-10.6 8.6,-19.3 19.3,-19.3 z" />
        </g>
      </g>
    </g>
  </g>
  <g
     id="Grupo_129"
     transform="translate(-613.09998,-321.9)">
    <g
       id="Grupo_128">
      <path
         id="Trazado_87"
         class="st2"
         d="M 692.5,252.9 582.6,38.5 473,252.9 Z M 613.7,145.7 v 0 c -17.1,0 -31,13.9 -31,31 0,-17.1 -13.9,-31 -31,-31 v 0 c 17.1,0 31,-13.9 31,-31 0,17.1 13.9,31 31,31 z" />
    </g>
  </g>
  <g
     id="Grupo_117"
     transform="translate(-613.09998,-321.9)"
     style="fill:#000000">
    <g
       id="Grupo_116"
       style="fill:#000000">
      <g
         id="Grupo_114"
         style="fill:#000000">
        <g
           id="Trazado_81"
           style="fill:#000000">
          <path
             class="st5"
             d="m 663.3,383.3 h -3.8 c 0,0 0,-1.9 0,-1.9 0,-13.2 8.5,-24.5 20.3,-28.8 C 668,348.3 659.6,337 659.5,323.8 v -1.9 c 0,0 3.7,0 3.7,0 v 1.9 c 0.1,14.8 12.2,26.8 27,27 0.1,0 0.3,0 0.4,0 v 3.8 c -0.1,0 -0.3,0 -0.4,0 -14.8,0.1 -26.8,12.1 -26.9,27 v 1.9 z"
             id="path110"
             style="fill:#000000" />
        </g>
      </g>
      <g
         id="Grupo_115"
         style="fill:#000000">
        <g
           id="Trazado_82"
           style="fill:#000000">
          <rect
             class="st5"
             x="613.09998"
             y="350.70001"
             width="71.199997"
             height="3.8"
             id="rect114"
             style="fill:#000000" />
        </g>
      </g>
    </g>
  </g>
  <g
     id="Polígono_1"
     transform="translate(-613.09998,-321.9)">
    <path
       class="st1"
       d="m 643.9,477.6 -49,28 v -56 z"
       id="path120" />
    <path
       class="st9"
       d="m 635.8,477.6 -36.9,-21.1 v 42.2 l 36.9,-21.1 m 8.1,0 -49,28 v -56 z"
       id="path122" />
  </g>
</svg>
