<?xml version="1.0" encoding="UTF-8" standalone="no"?>
<!-- Created with Inkscape (http://www.inkscape.org/) -->

<svg
   width="131.39207mm"
   height="13.17625mm"
   viewBox="0 0 131.39207 13.17625"
   version="1.1"
   id="svg8960"
   inkscape:version="1.1.2 (0a00cf5339, 2022-02-04)"
   sodipodi:docname="circles.svg"
   xmlns:inkscape="http://www.inkscape.org/namespaces/inkscape"
   xmlns:sodipodi="http://sodipodi.sourceforge.net/DTD/sodipodi-0.dtd"
   xmlns="http://www.w3.org/2000/svg"
   xmlns:svg="http://www.w3.org/2000/svg">
  <sodipodi:namedview
     id="namedview8962"
     pagecolor="#ffffff"
     bordercolor="#666666"
     borderopacity="1.0"
     inkscape:pageshadow="2"
     inkscape:pageopacity="0.0"
     inkscape:pagecheckerboard="0"
     inkscape:document-units="mm"
     showgrid="false"
     inkscape:zoom="0.69664703"
     inkscape:cx="197.37399"
     inkscape:cy="144.26244"
     inkscape:window-width="1920"
     inkscape:window-height="1016"
     inkscape:window-x="0"
     inkscape:window-y="0"
     inkscape:window-maximized="1"
     inkscape:current-layer="layer1" />
  <defs
     id="defs8957" />
  <g
     inkscape:label="Capa 1"
     inkscape:groupmode="layer"
     id="layer1"
     transform="translate(-52.810512,-110.09956)">
    <g
       id="Grupo_90"
       data-name="Grupo 90"
       transform="matrix(0.26458333,0,0,0.26458333,-38.555404,-52.362542)">
      <path
         id="Trazado_75"
         data-name="Trazado 75"
         class="cls-5"
         d="m 394.98,638.93 v 0 c -13.73,-0.02 -24.85,-11.17 -24.83,-24.9 0.02,13.73 -11.1,24.88 -24.83,24.9 0,0 0,0 0,0 v 0 c 13.73,0.02 24.85,11.17 24.83,24.9 -0.02,-13.73 11.1,-24.88 24.83,-24.9 z" />
    </g>
    <g
       id="Grupo_90-7"
       data-name="Grupo 90"
       transform="matrix(0.26458333,0,0,0.26458333,-25.416196,-52.362542)">
      <path
         id="Trazado_75-3"
         data-name="Trazado 75"
         class="cls-5"
         d="m 394.98,638.93 v 0 c -13.73,-0.02 -24.85,-11.17 -24.83,-24.9 0.02,13.73 -11.1,24.88 -24.83,24.9 0,0 0,0 0,0 v 0 c 13.73,0.02 24.85,11.17 24.83,24.9 -0.02,-13.73 11.1,-24.88 24.83,-24.9 z" />
    </g>
    <g
       id="Grupo_90-6"
       data-name="Grupo 90"
       transform="matrix(0.26458333,0,0,0.26458333,-12.276988,-52.362542)">
      <path
         id="Trazado_75-5"
         data-name="Trazado 75"
         class="cls-5"
         d="m 394.98,638.93 v 0 c -13.73,-0.02 -24.85,-11.17 -24.83,-24.9 0.02,13.73 -11.1,24.88 -24.83,24.9 0,0 0,0 0,0 v 0 c 13.73,0.02 24.85,11.17 24.83,24.9 -0.02,-13.73 11.1,-24.88 24.83,-24.9 z" />
    </g>
    <g
       id="Grupo_90-7-6"
       data-name="Grupo 90"
       transform="matrix(0.26458333,0,0,0.26458333,0.86222017,-52.362542)">
      <path
         id="Trazado_75-3-3"
         data-name="Trazado 75"
         class="cls-5"
         d="m 394.98,638.93 v 0 c -13.73,-0.02 -24.85,-11.17 -24.83,-24.9 0.02,13.73 -11.1,24.88 -24.83,24.9 0,0 0,0 0,0 v 0 c 13.73,0.02 24.85,11.17 24.83,24.9 -0.02,-13.73 11.1,-24.88 24.83,-24.9 z" />
    </g>
    <g
       id="Grupo_90-9"
       data-name="Grupo 90"
       transform="matrix(0.26458333,0,0,0.26458333,14.001428,-52.362542)">
      <path
         id="Trazado_75-4"
         data-name="Trazado 75"
         class="cls-5"
         d="m 394.98,638.93 v 0 c -13.73,-0.02 -24.85,-11.17 -24.83,-24.9 0.02,13.73 -11.1,24.88 -24.83,24.9 0,0 0,0 0,0 v 0 c 13.73,0.02 24.85,11.17 24.83,24.9 -0.02,-13.73 11.1,-24.88 24.83,-24.9 z" />
    </g>
    <g
       id="Grupo_90-7-8"
       data-name="Grupo 90"
       transform="matrix(0.26458333,0,0,0.26458333,27.140636,-52.362542)">
      <path
         id="Trazado_75-3-1"
         data-name="Trazado 75"
         class="cls-5"
         d="m 394.98,638.93 v 0 c -13.73,-0.02 -24.85,-11.17 -24.83,-24.9 0.02,13.73 -11.1,24.88 -24.83,24.9 0,0 0,0 0,0 v 0 c 13.73,0.02 24.85,11.17 24.83,24.9 -0.02,-13.73 11.1,-24.88 24.83,-24.9 z" />
    </g>
    <g
       id="Grupo_90-2"
       data-name="Grupo 90"
       transform="matrix(0.26458333,0,0,0.26458333,40.279844,-52.362542)">
      <path
         id="Trazado_75-9"
         data-name="Trazado 75"
         class="cls-5"
         d="m 394.98,638.93 v 0 c -13.73,-0.02 -24.85,-11.17 -24.83,-24.9 0.02,13.73 -11.1,24.88 -24.83,24.9 0,0 0,0 0,0 v 0 c 13.73,0.02 24.85,11.17 24.83,24.9 -0.02,-13.73 11.1,-24.88 24.83,-24.9 z" />
    </g>
    <g
       id="Grupo_90-7-3"
       data-name="Grupo 90"
       transform="matrix(0.26458333,0,0,0.26458333,53.419052,-52.362542)">
      <path
         id="Trazado_75-3-9"
         data-name="Trazado 75"
         class="cls-5"
         d="m 394.98,638.93 v 0 c -13.73,-0.02 -24.85,-11.17 -24.83,-24.9 0.02,13.73 -11.1,24.88 -24.83,24.9 0,0 0,0 0,0 v 0 c 13.73,0.02 24.85,11.17 24.83,24.9 -0.02,-13.73 11.1,-24.88 24.83,-24.9 z" />
    </g>
    <g
       id="Grupo_90-0"
       data-name="Grupo 90"
       transform="matrix(0.26458333,0,0,0.26458333,66.55826,-52.362542)">
      <path
         id="Trazado_75-8"
         data-name="Trazado 75"
         class="cls-5"
         d="m 394.98,638.93 v 0 c -13.73,-0.02 -24.85,-11.17 -24.83,-24.9 0.02,13.73 -11.1,24.88 -24.83,24.9 0,0 0,0 0,0 v 0 c 13.73,0.02 24.85,11.17 24.83,24.9 -0.02,-13.73 11.1,-24.88 24.83,-24.9 z" />
    </g>
    <g
       id="Grupo_90-7-85"
       data-name="Grupo 90"
       transform="matrix(0.26458333,0,0,0.26458333,79.697468,-52.362542)">
      <path
         id="Trazado_75-3-0"
         data-name="Trazado 75"
         class="cls-5"
         d="m 394.98,638.93 v 0 c -13.73,-0.02 -24.85,-11.17 -24.83,-24.9 0.02,13.73 -11.1,24.88 -24.83,24.9 0,0 0,0 0,0 v 0 c 13.73,0.02 24.85,11.17 24.83,24.9 -0.02,-13.73 11.1,-24.88 24.83,-24.9 z" />
    </g>
  </g>
</svg>
