<?xml version="1.0" encoding="UTF-8" standalone="no"?>
<svg
   id="Capa_1"
   data-name="Capa 1"
   viewBox="0 0 95.300006 95.300003"
   version="1.1"
   sodipodi:docname="o.svg"
   width="95.300003"
   height="95.300003"
   inkscape:version="1.1.2 (0a00cf5339, 2022-02-04)"
   xmlns:inkscape="http://www.inkscape.org/namespaces/inkscape"
   xmlns:sodipodi="http://sodipodi.sourceforge.net/DTD/sodipodi-0.dtd"
   xmlns="http://www.w3.org/2000/svg"
   xmlns:svg="http://www.w3.org/2000/svg">
  <sodipodi:namedview
     id="namedview123"
     pagecolor="#ffffff"
     bordercolor="#666666"
     borderopacity="1.0"
     inkscape:pageshadow="2"
     inkscape:pageopacity="0.0"
     inkscape:pagecheckerboard="0"
     showgrid="false"
     inkscape:zoom="0.92886242"
     inkscape:cx="-43.601721"
     inkscape:cy="108.19686"
     inkscape:window-width="1920"
     inkscape:window-height="1016"
     inkscape:window-x="0"
     inkscape:window-y="0"
     inkscape:window-maximized="1"
     inkscape:current-layer="Capa_1" />
  <defs
     id="defs10">
    <style
       id="style2">
      .cls-1 {
        fill: none;
      }

      .cls-2 {
        fill: #f194b3;
      }

      .cls-3 {
        fill: #010101;
      }

      .cls-4 {
        fill: #e62e20;
      }

      .cls-5 {
        fill: #2c2f35;
      }

      .cls-6 {
        clip-path: url(#clippath-1);
      }

      .cls-7 {
        fill: #fff;
      }

      .cls-8 {
        clip-path: url(#clippath);
      }

      .cls-9 {
        fill: #f193b3;
      }
    </style>
    <clipPath
       id="clippath">
      <rect
         class="cls-1"
         x="454.06"
         y="449.57999"
         width="107.26"
         height="68.459999"
         id="rect4" />
    </clipPath>
    <clipPath
       id="clippath-1">
      <rect
         class="cls-1"
         x="488.42999"
         y="549.12"
         width="38.529999"
         height="38.639999"
         id="rect7" />
    </clipPath>
  </defs>
  <g
     id="Grupo_50"
     data-name="Grupo 50"
     transform="translate(-454.06,-312.07)">
    <g
       id="Grupo_49"
       data-name="Grupo 49">
      <path
         id="Trazado_46"
         data-name="Trazado 46"
         class="cls-3"
         d="M 148.51,154.2 C 148.51,83.99 93.2,27.08 24.97,27.08 V 252.9 h 75.07 v -47.73 l 47.62,34.65 47.62,-34.65 v 47.73 h 75.07 V 27.12 C 202.91,28.07 148.52,84.58 148.52,154.2" />
    </g>
  </g>
  <g
     id="Grupo_65"
     data-name="Grupo 65"
     transform="translate(-454.06,-312.07)">
    <g
       id="Grupo_64"
       data-name="Grupo 64">
      <path
         id="Trazado_57"
         data-name="Trazado 57"
         class="cls-7"
         d="m 319.71,386.31 c 0,0 -46.9,-3.51 -70.63,-14.01 -14.33,-6.34 -45.59,-30.41 -45.59,-30.41 v 0 c -9.73,-7.44 -21.64,-11.46 -33.88,-11.45 -12.25,-0.02 -24.16,4.01 -33.89,11.45 v 0 c 0,0 -31.26,24.06 -45.58,30.4 -23.73,10.5 -70.49,14.02 -70.49,14.02 h -0.14 c 0,0 46.9,3.52 70.63,14.02 14.32,6.34 45.58,30.41 45.58,30.41 v 0 c 9.73,7.44 21.64,11.46 33.89,11.44 12.25,0.02 24.16,-4.01 33.89,-11.45 v 0 c 0,0 31.26,-24.07 45.59,-30.4 23.73,-10.5 70.63,-14.02 70.63,-14.02" />
    </g>
  </g>
  <g
     id="Grupo_68"
     data-name="Grupo 68"
     transform="translate(-454.06,-312.07)">
    <g
       id="Grupo_67"
       data-name="Grupo 67">
      <path
         id="Trazado_59"
         data-name="Trazado 59"
         class="cls-5"
         d="m 169.62,428.47 c -23.25,0 -42.09,-18.85 -42.09,-42.09 0,-23.24 18.85,-42.09 42.09,-42.09 23.25,0 42.09,18.85 42.09,42.09 0,23.25 -18.84,42.09 -42.09,42.09 v 0" />
    </g>
  </g>
  <g
     id="Grupo_71-3"
     data-name="Grupo 71-3"
     transform="translate(-454.06,-312.07)">
    <g
       id="Grupo_70-3"
       data-name="Grupo 70-3">
      <path
         id="Trazado_61-3"
         data-name="Trazado 61-3"
         class="cls-9"
         d="m 198.45,386.29 v 0 c -16.04,-0.02 -29.02,-13.04 -29,-29.08 0,0 0,0 0,0 0.02,16.04 -12.96,29.06 -28.99,29.08 0,0 0,0 0,0 v 0 c 16.04,0.02 29.02,13.04 29,29.08 0,0 0,0 0,0 -0.03,-16.04 12.95,-29.06 28.99,-29.08 0,0 0,0 0,0 z" />
    </g>
  </g>
  <g
     id="Grupo_79"
     data-name="Grupo 79"
     transform="translate(-454.06,-312.07)">
    <g
       id="Grupo_78"
       data-name="Grupo 78">
      <path
         id="Trazado_66"
         data-name="Trazado 66"
         class="cls-3"
         d="m 435.05,171.5 c 10.67,-6.1 29.2,-27.6 29.2,-55.2 0,-53.26 -39.56,-89.22 -91.7,-89.22 H 283.7 v 224.65 h 178.36 v -27.29 c 0,-25.99 -10.06,-42.66 -27.01,-52.95 m -75.37,-26.76 v 0 -77.05 0 c 0,21.28 16.88,38.53 37.7,38.53 -20.82,0 -37.7,17.25 -37.7,38.53" />
    </g>
  </g>
  <path
     class="cls-3"
     d="M -68.84,55.96 C -68.8,27.84 -91.51,5 -119.61,4.85 h -0.2 V 278.46 H -18.64 V 4.87 c -27.83,0.45 -50.24,23.16 -50.2,51.09 z"
     id="path27" />
  <g
     id="Grupo_112"
     data-name="Grupo 112"
     transform="translate(-454.06,-312.07)">
    <path
       id="Trazado_63"
       data-name="Trazado 63"
       class="cls-4"
       d="m 203.76,531.54 v 0 c 0,0 -16.72,-21.71 -21.12,-31.66 -7.29,-16.48 -9.73,-50.3 -9.73,-50.3 v 0 c 0,0 -2.44,33.82 -9.74,50.3 -4.4,9.95 -21.12,31.66 -21.12,31.66 v 0 c -5.17,6.76 -7.96,15.03 -7.95,23.53 0,21.43 17.37,38.8 38.8,38.8 21.43,0 38.8,-17.37 38.8,-38.8 0.01,-8.51 -2.78,-16.78 -7.95,-23.53" />
  </g>
  <g
     id="Grupo_113"
     data-name="Grupo 113"
     transform="translate(-454.06,-312.07)">
    <path
       id="Trazado_64"
       data-name="Trazado 64"
       class="cls-7"
       d="m 190.56,560.64 v 0 c -9.76,-0.01 -17.67,-7.94 -17.65,-17.71 v 0 c 0.01,9.76 -7.89,17.69 -17.65,17.71 0,0 0,0 0,0 v 0 c 9.76,0.01 17.67,7.94 17.65,17.71 0,0 0,0 0,0 -0.01,-9.76 7.89,-17.69 17.65,-17.71 z" />
  </g>
  <g
     id="g95"
     transform="translate(-454.06,-312.07)">
    <g
       id="Grupo_89"
       data-name="Grupo 89">
      <path
         id="Trazado_74"
         data-name="Trazado 74"
         class="cls-5"
         d="m 345.67,638.93 v 0 c -13.73,-0.02 -24.85,-11.17 -24.83,-24.9 0.02,13.73 -11.1,24.88 -24.83,24.9 0,0 0,0 0,0 v 0 c 13.73,0.02 24.85,11.17 24.83,24.9 -0.02,-13.73 11.1,-24.88 24.83,-24.9 z" />
    </g>
    <g
       id="Grupo_90"
       data-name="Grupo 90">
      <path
         id="Trazado_75"
         data-name="Trazado 75"
         class="cls-5"
         d="m 394.98,638.93 v 0 c -13.73,-0.02 -24.85,-11.17 -24.83,-24.9 0.02,13.73 -11.1,24.88 -24.83,24.9 0,0 0,0 0,0 v 0 c 13.73,0.02 24.85,11.17 24.83,24.9 -0.02,-13.73 11.1,-24.88 24.83,-24.9 z" />
    </g>
    <g
       id="Grupo_91"
       data-name="Grupo 91">
      <path
         id="Trazado_76"
         data-name="Trazado 76"
         class="cls-5"
         d="m 445.61,639.02 v 0 c -13.73,-0.02 -24.85,-11.17 -24.83,-24.9 0.02,13.73 -11.1,24.88 -24.83,24.9 0,0 0,0 0,0 v 0 c 13.73,0.02 24.85,11.17 24.83,24.9 -0.02,-13.73 11.1,-24.88 24.83,-24.9 z" />
    </g>
    <g
       id="Grupo_92"
       data-name="Grupo 92">
      <path
         id="Trazado_77"
         data-name="Trazado 77"
         class="cls-5"
         d="m 494.92,639.02 v 0 c -13.73,-0.02 -24.85,-11.17 -24.83,-24.9 0.02,13.73 -11.1,24.88 -24.83,24.9 0,0 0,0 0,0 v 0 c 13.73,0.02 24.85,11.17 24.83,24.9 -0.02,-13.73 11.1,-24.88 24.83,-24.9 z" />
    </g>
    <g
       id="Grupo_93"
       data-name="Grupo 93">
      <path
         id="Trazado_78"
         data-name="Trazado 78"
         class="cls-5"
         d="m 545.55,639.02 v 0 c -13.73,-0.02 -24.85,-11.17 -24.83,-24.9 0.02,13.73 -11.1,24.88 -24.83,24.9 0,0 0,0 0,0 v 0 c 13.73,0.02 24.85,11.17 24.83,24.9 -0.02,-13.73 11.1,-24.88 24.83,-24.9 z" />
    </g>
    <g
       id="Grupo_94"
       data-name="Grupo 94">
      <path
         id="Trazado_79"
         data-name="Trazado 79"
         class="cls-5"
         d="m 594.86,639.02 v 0 c -13.73,-0.02 -24.85,-11.17 -24.83,-24.9 0.02,13.73 -11.1,24.88 -24.83,24.9 0,0 0,0 0,0 v 0 c 13.73,0.02 24.85,11.17 24.83,24.9 -0.02,-13.73 11.1,-24.88 24.83,-24.9 z" />
    </g>
    <g
       id="Grupo_95-2"
       data-name="Grupo 95-2">
      <g
         id="Grupo_89-2"
         data-name="Grupo 89-2">
        <path
           id="Trazado_74-2"
           data-name="Trazado 74-2"
           class="cls-5"
           d="m 345.67,680.31 v 0 c -13.73,-0.02 -24.85,-11.17 -24.83,-24.9 0.02,13.73 -11.1,24.88 -24.83,24.9 0,0 0,0 0,0 v 0 c 13.73,0.02 24.85,11.17 24.83,24.9 -0.02,-13.73 11.1,-24.88 24.83,-24.9 z" />
      </g>
      <g
         id="Grupo_90-2"
         data-name="Grupo 90-2">
        <path
           id="Trazado_75-2"
           data-name="Trazado 75-2"
           class="cls-5"
           d="m 394.98,680.31 v 0 c -13.73,-0.02 -24.85,-11.17 -24.83,-24.9 0.02,13.73 -11.1,24.88 -24.83,24.9 0,0 0,0 0,0 v 0 c 13.73,0.02 24.85,11.17 24.83,24.9 -0.02,-13.73 11.1,-24.88 24.83,-24.9 z" />
      </g>
      <g
         id="Grupo_91-2"
         data-name="Grupo 91-2">
        <path
           id="Trazado_76-2"
           data-name="Trazado 76-2"
           class="cls-5"
           d="m 445.61,680.39 v 0 c -13.73,-0.02 -24.85,-11.17 -24.83,-24.9 0.02,13.73 -11.1,24.88 -24.83,24.9 0,0 0,0 0,0 v 0 c 13.73,0.02 24.85,11.17 24.83,24.9 -0.02,-13.73 11.1,-24.88 24.83,-24.9 z" />
      </g>
      <g
         id="Grupo_92-2"
         data-name="Grupo 92-2">
        <path
           id="Trazado_77-2"
           data-name="Trazado 77-2"
           class="cls-5"
           d="m 494.92,680.39 v 0 c -13.73,-0.02 -24.85,-11.17 -24.83,-24.9 0.02,13.73 -11.1,24.88 -24.83,24.9 0,0 0,0 0,0 v 0 c 13.73,0.02 24.85,11.17 24.83,24.9 -0.02,-13.73 11.1,-24.88 24.83,-24.9 z" />
      </g>
      <g
         id="Grupo_93-2"
         data-name="Grupo 93-2">
        <path
           id="Trazado_78-2"
           data-name="Trazado 78-2"
           class="cls-5"
           d="m 545.55,680.39 v 0 c -13.73,-0.02 -24.85,-11.17 -24.83,-24.9 0.02,13.73 -11.1,24.88 -24.83,24.9 0,0 0,0 0,0 v 0 c 13.73,0.02 24.85,11.17 24.83,24.9 -0.02,-13.73 11.1,-24.88 24.83,-24.9 z" />
      </g>
      <g
         id="Grupo_94-2"
         data-name="Grupo 94-2">
        <path
           id="Trazado_79-2"
           data-name="Trazado 79-2"
           class="cls-5"
           d="m 594.86,680.39 v 0 c -13.73,-0.02 -24.85,-11.17 -24.83,-24.9 0.02,13.73 -11.1,24.88 -24.83,24.9 0,0 0,0 0,0 v 0 c 13.73,0.02 24.85,11.17 24.83,24.9 -0.02,-13.73 11.1,-24.88 24.83,-24.9 z" />
      </g>
    </g>
    <g
       id="g60"
       data-name="Grupo 89">
      <path
         id="path58"
         data-name="Trazado 74"
         class="cls-5"
         d="m 49.8,639.02 v 0 C 36.07,639 24.95,627.85 24.97,614.12 c 0.02,13.73 -11.1,24.88 -24.83,24.9 0,0 0,0 0,0 v 0 c 13.73,0.02 24.85,11.17 24.83,24.9 -0.02,-13.73 11.1,-24.88 24.83,-24.9 z" />
    </g>
    <g
       id="g64"
       data-name="Grupo 90">
      <path
         id="path62"
         data-name="Trazado 75"
         class="cls-5"
         d="m 99.1,639.02 v 0 C 85.37,639 74.25,627.85 74.27,614.12 c 0.02,13.73 -11.1,24.88 -24.83,24.9 0,0 0,0 0,0 v 0 c 13.73,0.02 24.85,11.17 24.83,24.9 -0.02,-13.73 11.1,-24.88 24.83,-24.9 z" />
    </g>
    <g
       id="g68"
       data-name="Grupo 91">
      <path
         id="path66"
         data-name="Trazado 76"
         class="cls-5"
         d="m 149.74,639.1 v 0 c -13.73,-0.02 -24.85,-11.17 -24.83,-24.9 0.02,13.73 -11.1,24.88 -24.83,24.9 0,0 0,0 0,0 v 0 c 13.73,0.02 24.85,11.17 24.83,24.9 -0.02,-13.73 11.1,-24.88 24.83,-24.9 z" />
    </g>
    <g
       id="g72"
       data-name="Grupo 92">
      <path
         id="path70"
         data-name="Trazado 77"
         class="cls-5"
         d="m 199.04,639.1 v 0 c -13.73,-0.02 -24.85,-11.17 -24.83,-24.9 0.02,13.73 -11.1,24.88 -24.83,24.9 0,0 0,0 0,0 v 0 c 13.73,0.02 24.85,11.17 24.83,24.9 -0.02,-13.73 11.1,-24.88 24.83,-24.9 z" />
    </g>
    <g
       id="g76"
       data-name="Grupo 93">
      <path
         id="path74"
         data-name="Trazado 78"
         class="cls-5"
         d="m 249.68,639.1 v 0 c -13.73,-0.02 -24.85,-11.17 -24.83,-24.9 0.02,13.73 -11.1,24.88 -24.83,24.9 0,0 0,0 0,0 v 0 c 13.73,0.02 24.85,11.17 24.83,24.9 -0.02,-13.73 11.1,-24.88 24.83,-24.9 z" />
    </g>
    <g
       id="g80"
       data-name="Grupo 94">
      <path
         id="path78"
         data-name="Trazado 79"
         class="cls-5"
         d="m 298.98,639.1 v 0 c -13.73,-0.02 -24.85,-11.17 -24.83,-24.9 0.02,13.73 -11.1,24.88 -24.83,24.9 0,0 0,0 0,0 v 0 c 13.73,0.02 24.85,11.17 24.83,24.9 -0.02,-13.73 11.1,-24.88 24.83,-24.9 z" />
    </g>
    <g
       id="Grupo_95-2-2"
       data-name="Grupo 95-2">
      <g
         id="Grupo_89-2-2"
         data-name="Grupo 89-2">
        <path
           id="Trazado_74-2-2"
           data-name="Trazado 74-2"
           class="cls-5"
           d="m 49.8,680.39 v 0 c -13.73,-0.02 -24.85,-11.17 -24.83,-24.9 0.02,13.73 -11.1,24.88 -24.83,24.9 0,0 0,0 0,0 v 0 c 13.73,0.02 24.85,11.17 24.83,24.9 -0.02,-13.73 11.1,-24.88 24.83,-24.9 z" />
      </g>
      <g
         id="Grupo_90-2-2"
         data-name="Grupo 90-2">
        <path
           id="Trazado_75-2-2"
           data-name="Trazado 75-2"
           class="cls-5"
           d="m 99.1,680.39 v 0 c -13.73,-0.02 -24.85,-11.17 -24.83,-24.9 0.02,13.73 -11.1,24.88 -24.83,24.9 0,0 0,0 0,0 v 0 c 13.73,0.02 24.85,11.17 24.83,24.9 -0.02,-13.73 11.1,-24.88 24.83,-24.9 z" />
      </g>
      <g
         id="Grupo_91-2-2"
         data-name="Grupo 91-2">
        <path
           id="Trazado_76-2-2"
           data-name="Trazado 76-2"
           class="cls-5"
           d="m 149.74,680.48 v 0 c -13.73,-0.02 -24.85,-11.17 -24.83,-24.9 0.02,13.73 -11.1,24.88 -24.83,24.9 0,0 0,0 0,0 v 0 c 13.73,0.02 24.85,11.17 24.83,24.9 -0.02,-13.73 11.1,-24.88 24.83,-24.9 z" />
      </g>
      <g
         id="Grupo_92-2-2"
         data-name="Grupo 92-2">
        <path
           id="Trazado_77-2-2"
           data-name="Trazado 77-2"
           class="cls-5"
           d="m 199.04,680.48 v 0 c -13.73,-0.02 -24.85,-11.17 -24.83,-24.9 0.02,13.73 -11.1,24.88 -24.83,24.9 0,0 0,0 0,0 v 0 c 13.73,0.02 24.85,11.17 24.83,24.9 -0.02,-13.73 11.1,-24.88 24.83,-24.9 z" />
      </g>
      <g
         id="Grupo_93-2-2"
         data-name="Grupo 93-2">
        <path
           id="Trazado_78-2-2"
           data-name="Trazado 78-2"
           class="cls-5"
           d="m 249.68,680.48 v 0 c -13.73,-0.02 -24.85,-11.17 -24.83,-24.9 0.02,13.73 -11.1,24.88 -24.83,24.9 0,0 0,0 0,0 v 0 c 13.73,0.02 24.85,11.17 24.83,24.9 -0.02,-13.73 11.1,-24.88 24.83,-24.9 z" />
      </g>
      <g
         id="Grupo_94-2-2"
         data-name="Grupo 94-2">
        <path
           id="Trazado_79-2-2"
           data-name="Trazado 79-2"
           class="cls-5"
           d="m 298.98,680.48 v 0 c -13.73,-0.02 -24.85,-11.17 -24.83,-24.9 0.02,13.73 -11.1,24.88 -24.83,24.9 0,0 0,0 0,0 v 0 c 13.73,0.02 24.85,11.17 24.83,24.9 -0.02,-13.73 11.1,-24.88 24.83,-24.9 z" />
      </g>
    </g>
  </g>
  <g
     id="Grupo_61"
     data-name="Grupo 61"
     transform="translate(-454.06,-312.07)">
    <g
       id="Grupo_59"
       data-name="Grupo 59">
      <path
         id="Trazado_53"
         data-name="Trazado 53"
         class="cls-7"
         d="m 501.71,407.37 c -26.32,0 -47.65,-21.33 -47.65,-47.65 0,-26.32 21.33,-47.65 47.65,-47.65 26.32,0 47.65,21.33 47.65,47.65 0,26.32 -21.33,47.65 -47.65,47.65" />
    </g>
    <g
       id="Grupo_60"
       data-name="Grupo 60">
      <path
         id="Trazado_54"
         data-name="Trazado 54"
         class="cls-2"
         d="m 534.56,359.72 v 0 c -18.17,-0.03 -32.87,-14.77 -32.85,-32.94 v 0 c 0.03,18.16 -14.68,32.91 -32.85,32.94 0,0 0,0 0,0 v 0 c 18.17,0.03 32.87,14.77 32.85,32.94 -0.03,-18.17 14.68,-32.91 32.84,-32.94 0,0 0,0 0,0 v 0 z" />
    </g>
  </g>
  <g
     id="Grupo_58"
     data-name="Grupo 58"
     transform="translate(-454.06,-312.07)">
    <g
       class="cls-8"
       clip-path="url(#clippath)"
       id="g110">
      <g
         id="Grupo_57"
         data-name="Grupo 57">
        <g
           id="Grupo_56"
           data-name="Grupo 56">
          <g
             id="Trazado_50"
             data-name="Trazado 50">
            <path
               class="cls-7"
               d="m 505.91,501.4 v 0 c 0,-25.89 -20.76,-46.95 -46.28,-46.95 v -5 h 97.56 v 5 c -12.36,0 -23.97,4.88 -32.71,13.74 -8.75,8.87 -13.57,20.66 -13.56,33.21 0,0 0,0 0,0 h -5 z m -24.34,-46.94 c 12.63,6.08 22.44,17.25 26.82,30.87 2.46,-7.7 6.71,-14.75 12.52,-20.65 4.21,-4.27 9.03,-7.71 14.26,-10.23 h -53.6 z"
               id="path102" />
          </g>
        </g>
        <g
           id="Trazado_51"
           data-name="Trazado 51">
          <path
             class="cls-7"
             d="M 561.68,518.4 H 453.7 v -69.18 h 107.98 z m -102.98,-5 h 97.98 V 454.22 H 458.7 Z"
             id="path106" />
        </g>
      </g>
    </g>
  </g>
  <g
     id="Grupo_98"
     data-name="Grupo 98"
     transform="translate(-454.06,-312.07)">
    <g
       class="cls-6"
       clip-path="url(#clippath-1)"
       id="g116">
      <g
         id="Grupo_71"
         data-name="Grupo 71">
        <g
           id="Grupo_70"
           data-name="Grupo 70">
          <path
             id="Trazado_61"
             data-name="Trazado 61"
             class="cls-4"
             d="m 526.96,568.44 v 0 c -10.65,-0.01 -19.28,-8.66 -19.27,-19.31 0,0 0,0 0,0 0.02,10.65 -8.61,19.3 -19.26,19.32 v 0 c 10.66,0 19.29,8.65 19.28,19.31 0,0 0,0 0,0.01 -0.02,-10.65 8.61,-19.31 19.26,-19.32 0,0 0,0 0,0 v 0 z" />
        </g>
      </g>
    </g>
  </g>
  <g
     id="Grupo_129"
     data-name="Grupo 129"
     transform="translate(-454.06,-312.07)">
    <g
       id="Grupo_128"
       data-name="Grupo 128">
      <path
         id="Trazado_87"
         data-name="Trazado 87"
         class="cls-3"
         d="M 692.48,252.9 582.61,38.51 472.96,252.9 Z M 613.7,145.71 v 0 c -17.11,0 -30.99,13.87 -30.99,30.99 0,-17.11 -13.87,-30.99 -30.99,-30.99 v 0 c 17.11,0 30.99,-13.87 30.99,-30.99 0,17.11 13.87,30.99 30.99,30.99 z" />
    </g>
  </g>
</svg>
